<?xml version="1.0" encoding="UTF-8" standalone="no"?>
<svg
   xmlns:dc="http://purl.org/dc/elements/1.1/"
   xmlns:cc="http://creativecommons.org/ns#"
   xmlns:rdf="http://www.w3.org/1999/02/22-rdf-syntax-ns#"
   xmlns:svg="http://www.w3.org/2000/svg"
   xmlns="http://www.w3.org/2000/svg"
   xmlns:sodipodi="http://sodipodi.sourceforge.net/DTD/sodipodi-0.dtd"
   xmlns:inkscape="http://www.inkscape.org/namespaces/inkscape"
   viewBox="0 0 50 26"
   id="svg2"
   version="1.1"
   inkscape:version="0.91 r13725"
   sodipodi:docname="loginBtn.svg"
   width="50"
   height="26">
  <metadata
     id="metadata10">
    <rdf:RDF>
      <cc:Work
         rdf:about="">
        <dc:format>image/svg+xml</dc:format>
        <dc:type
           rdf:resource="http://purl.org/dc/dcmitype/StillImage" />
        <dc:title></dc:title>
      </cc:Work>
    </rdf:RDF>
  </metadata>
  <defs
     id="defs8">
    <filter
       inkscape:collect="always"
       style="color-interpolation-filters:sRGB"
       id="filter4276"
       x="-0.14626178"
       width="1.2925236"
       y="-0.5701224"
       height="2.1402448">
      <feGaussianBlur
         inkscape:collect="always"
         stdDeviation="2.4661018"
         id="feGaussianBlur4278" />
    </filter>
  </defs>
  <sodipodi:namedview
     pagecolor="#ffffff"
     bordercolor="#666666"
     borderopacity="1"
     objecttolerance="10"
     gridtolerance="10"
     guidetolerance="10"
     inkscape:pageopacity="0"
     inkscape:pageshadow="2"
     inkscape:window-width="1280"
     inkscape:window-height="697"
     id="namedview6"
     showgrid="false"
     fit-margin-top="0"
     fit-margin-left="0"
     fit-margin-right="0"
     fit-margin-bottom="0"
     inkscape:zoom="4.72"
     inkscape:cx="65.564432"
     inkscape:cy="22.40433"
     inkscape:window-x="-8"
     inkscape:window-y="225"
     inkscape:window-maximized="1"
     inkscape:current-layer="svg2" />
  <path
     style="font-weight:400;line-height:normal;font-family:sans-serif;text-indent:0;text-align:start;text-decoration:none;text-decoration-line:none;text-decoration-style:solid;text-decoration-color:#000000;text-transform:none;block-progression:tb;white-space:normal;overflow:visible;isolation:auto;mix-blend-mode:normal"
     d="M 4,0 C 1.8026661,0 0,1.802666 0,4 l 0,18 c 0,2.197334 1.8026661,4 4,4 l 42,0 c 2.197334,0 4,-1.802666 4,-4 L 50,4 C 50,1.802666 48.197334,0 46,0 L 4,0 Z m 0,2 42,0 c 1.116666,0 2,0.883334 2,2 l 0,18 c 0,1.116666 -0.883334,2 -2,2 L 4,24 C 2.8833339,24 2,23.116666 2,22 L 2,4 C 2,2.883334 2.8833339,2 4,2 Z m 29.525391,8.308594 c -1.691,0 -2.78125,1.13675 -2.78125,2.96875 0,1.836 1.07825,2.974609 2.78125,2.974609 1.695,0 2.773437,-1.138609 2.773437,-2.974609 0,-1.832 -1.078437,-2.96775 -2.773437,-2.96875 z m -26.6132816,0.154297 0,5.634765 2.7070312,0 c 1.2070004,0 1.9707034,-0.637 1.9707034,-1.625 0,-0.719 -0.572547,-1.293031 -1.310547,-1.332031 l 0,-0.07422 c 0.598,-0.082 1.050781,-0.594218 1.050781,-1.199218 0,-0.875001 -0.662109,-1.404297 -1.7871092,-1.404297 l -2.6308594,0 z m 6.1035156,0 0,3.689453 c 0,1.266 0.964687,2.099609 2.429687,2.099609 1.465001,0 2.425782,-0.833609 2.425782,-2.099609 l 0,-3.689453 -1.433594,0 0,3.539062 c 0,0.656 -0.355188,1.042969 -0.992188,1.042969 -0.637,0 -0.996093,-0.386969 -0.996093,-1.042969 l 0,-3.539062 -1.433594,0 z m 6.279297,0 0,1.152343 1.625,0 0,4.484375 1.429687,0 0,-4.484375 1.628907,0 0,-1.152343 -4.683594,0 z m 5.794922,0 0,1.152343 1.625,0 0,4.484375 1.429687,0 0,-4.484375 1.628907,0 0,-1.152343 -4.683594,0 z m 12.671875,0 0,5.636718 1.357422,0 0,-3.203125 0.07617,0 2.355469,3.203125 1.136719,0 0,-5.636718 -1.359375,0 0,3.171875 -0.07422,0 -2.347656,-3.171875 -1.144531,0 z m -29.4140628,1.009765 0.8125,0 c 0.488,0 0.7734376,0.242531 0.7734376,0.644532 0,0.398999 -0.3051251,0.642578 -0.828125,0.642578 l -0.7578126,0 0,-1.28711 z m 25.1757818,0.02344 c 0.789,0 1.316406,0.69525 1.316406,1.78125 0,1.09 -0.523407,1.785156 -1.316406,1.785156 -0.800001,0 -1.320313,-0.695156 -1.320313,-1.785156 0,-1.086 0.527313,-1.78125 1.320313,-1.78125 z m -25.1757818,2.134765 0.8574219,0 c 0.594,0 0.9277339,0.25775 0.9277339,0.71875 0,0.476 -0.3239683,0.738282 -0.9179682,0.738282 l -0.8671876,0 0,-1.457032 z"
     font-weight="400"
     white-space="normal"
     overflow="visible"
     id="path4"
     inkscape:connector-curvature="0" />
  <text
     xml:space="preserve"
     style="font-style:normal;font-weight:normal;font-size:40px;line-height:125%;font-family:sans-serif;letter-spacing:0px;word-spacing:0px;fill:#000000;fill-opacity:1;stroke:none;stroke-width:1px;stroke-linecap:butt;stroke-linejoin:miter;stroke-opacity:1"
     x="7.2033896"
     y="42.525425"
     id="text4138"
     sodipodi:linespacing="125%"><tspan
       sodipodi:role="line"
       id="tspan4140"
       x="7.2033896"
       y="42.525425" /></text>
  <rect
     style="opacity:1;fill:#ffffff;fill-opacity:0.98051947;fill-rule:nonzero;stroke:#ffffff;stroke-width:7.08661413;stroke-miterlimit:4;stroke-dasharray:none;stroke-opacity:1;filter:url(#filter4276)"
     id="rect4142"
     width="40.466103"
     height="10.381357"
     x="4.4491525"
     y="7.9915257" />
  <text
     xml:space="preserve"
     style="font-style:normal;font-variant:normal;font-weight:normal;font-stretch:normal;font-size:15.48102379px;line-height:125%;font-family:sans-serif;-inkscape-font-specification:'sans-serif, Normal';text-align:start;letter-spacing:0px;word-spacing:0px;writing-mode:lr-tb;text-anchor:start;fill:#000000;fill-opacity:1;stroke:none;stroke-width:1px;stroke-linecap:butt;stroke-linejoin:miter;stroke-opacity:1"
     x="3.677587"
     y="17.328953"
     id="text4280"
     sodipodi:linespacing="125%"><tspan
       sodipodi:role="line"
       id="tspan4284"
       x="3.677587"
       y="17.328953">Login</tspan></text>
</svg>
